<?xml version="1.0" standalone="no"?>
<!DOCTYPE svg PUBLIC "-//W3C//DTD SVG 20010904//EN"
 "http://www.w3.org/TR/2001/REC-SVG-20010904/DTD/svg10.dtd">
<svg version="1.0" xmlns="http://www.w3.org/2000/svg"
 width="326.000000pt" height="326.000000pt" viewBox="0 0 326.000000 326.000000"
 preserveAspectRatio="xMidYMid meet">
<metadata>
Created by potrace 1.14, written by Peter Selinger 2001-2017
</metadata>
<g transform="translate(0.000000,326.000000) scale(0.100000,-0.100000)"
fill="#000000" stroke="none">
<path d="M1545 3248 c-342 -21 -624 -124 -895 -329 -286 -215 -493 -524 -584
-870 -42 -158 -56 -279 -52 -455 5 -165 12 -224 46 -359 11 -44 22 -87 24 -96
3 -9 16 -47 31 -85 190 -491 600 -860 1100 -990 445 -116 921 -39 1300 209
458 301 727 793 734 1342 8 658 -385 1253 -999 1512 -217 92 -471 136 -705
121z"/>
</g>
</svg>
